<svg id="svg" version="1.1" width="400" height="348" viewBox="0 0 400 348" xmlns="http://www.w3.org/2000/svg" xmlns:xlink="http://www.w3.org/1999/xlink" ><g id="svgg"><path id="path0" d="M182.158 0.243 C 181.153 0.321,180.331 0.515,180.331 0.674 C 180.331 0.833,179.156 1.073,177.720 1.207 C 176.284 1.342,175.109 1.577,175.109 1.730 C 175.109 1.883,174.247 2.116,173.194 2.248 C 172.141 2.379,171.279 2.632,171.279 2.810 C 171.279 2.988,170.731 3.133,170.061 3.133 C 169.391 3.133,168.842 3.275,168.842 3.449 C 168.842 3.622,168.059 3.872,167.102 4.003 C 166.144 4.135,165.361 4.385,165.361 4.558 C 165.361 4.732,164.970 4.874,164.491 4.874 C 164.012 4.874,163.621 5.029,163.621 5.218 C 163.621 5.407,162.994 5.662,162.228 5.785 C 161.462 5.907,160.836 6.144,160.836 6.311 C 160.836 6.478,160.601 6.614,160.313 6.614 C 160.026 6.614,159.791 6.751,159.791 6.918 C 159.791 7.085,159.164 7.322,158.399 7.444 C 157.633 7.567,157.006 7.822,157.006 8.011 C 157.006 8.200,156.693 8.355,156.310 8.355 C 155.927 8.355,155.614 8.499,155.614 8.676 C 155.614 8.852,155.144 9.099,154.569 9.225 C 153.995 9.352,153.525 9.592,153.525 9.759 C 153.525 9.927,152.977 10.167,152.306 10.293 C 151.636 10.418,151.088 10.661,151.088 10.831 C 151.088 11.001,150.853 11.140,150.566 11.140 C 150.279 11.140,150.044 11.280,150.044 11.451 C 150.044 11.621,149.652 11.859,149.173 11.979 C 148.695 12.099,148.303 12.351,148.303 12.539 C 148.303 12.727,148.068 12.881,147.781 12.881 C 147.493 12.881,147.258 13.037,147.258 13.229 C 147.258 13.420,146.940 13.577,146.551 13.577 C 146.162 13.577,145.754 13.812,145.644 14.099 C 145.534 14.386,145.225 14.621,144.958 14.621 C 144.692 14.621,144.473 14.778,144.473 14.970 C 144.473 15.161,144.155 15.318,143.766 15.318 C 143.377 15.318,142.969 15.553,142.859 15.840 C 142.748 16.127,142.433 16.362,142.157 16.362 C 141.881 16.362,141.310 16.732,140.889 17.184 C 140.467 17.636,139.769 18.117,139.339 18.252 C 138.908 18.387,138.555 18.644,138.555 18.822 C 138.555 19.001,138.378 19.147,138.161 19.147 C 137.944 19.147,137.250 19.695,136.618 20.366 C 135.986 21.036,135.308 21.584,135.111 21.584 C 134.914 21.584,134.132 22.211,133.374 22.977 C 132.616 23.742,131.893 24.369,131.767 24.369 C 131.642 24.369,131.086 24.800,130.533 25.326 C 129.979 25.853,129.325 26.472,129.080 26.702 C 128.834 26.932,128.445 27.324,128.215 27.573 C 127.985 27.821,127.593 28.213,127.345 28.443 C 127.096 28.673,126.705 29.065,126.474 29.313 C 126.244 29.562,125.853 29.956,125.604 30.191 C 125.061 30.702,124.414 31.347,123.837 31.952 C 123.603 32.197,122.969 32.863,122.428 33.431 C 121.886 34.000,121.309 34.465,121.146 34.465 C 120.982 34.465,120.737 34.813,120.602 35.239 C 120.467 35.665,119.673 36.677,118.838 37.489 C 118.003 38.300,117.319 39.120,117.319 39.310 C 117.319 39.500,116.959 40.015,116.519 40.455 C 116.079 40.895,115.614 41.529,115.486 41.863 C 115.358 42.198,115.101 42.472,114.917 42.472 C 114.732 42.472,114.470 42.824,114.334 43.255 C 114.198 43.686,113.818 44.273,113.490 44.560 C 113.162 44.848,112.782 45.435,112.646 45.866 C 112.510 46.297,112.253 46.649,112.074 46.649 C 111.895 46.649,111.749 46.884,111.749 47.171 C 111.749 47.459,111.603 47.694,111.425 47.694 C 111.246 47.694,110.989 48.046,110.853 48.477 C 110.717 48.908,110.325 49.504,109.982 49.803 C 109.639 50.102,109.253 50.767,109.124 51.283 C 108.995 51.798,108.749 52.219,108.578 52.219 C 108.408 52.219,108.268 52.538,108.268 52.927 C 108.268 53.315,108.033 53.724,107.746 53.834 C 107.459 53.944,107.224 54.331,107.224 54.693 C 107.224 55.056,107.079 55.352,106.903 55.352 C 106.727 55.352,106.480 55.822,106.353 56.397 C 106.227 56.971,105.980 57.441,105.803 57.441 C 105.627 57.441,105.483 57.676,105.483 57.963 C 105.483 58.251,105.336 58.486,105.156 58.486 C 104.976 58.486,104.724 59.191,104.595 60.052 C 104.465 60.914,104.221 61.619,104.051 61.619 C 103.881 61.619,103.742 61.854,103.742 62.141 C 103.742 62.428,103.593 62.663,103.410 62.663 C 103.227 62.663,102.970 63.251,102.838 63.969 C 102.706 64.687,102.503 65.352,102.387 65.448 C 101.882 65.865,101.302 67.264,101.093 68.566 C 100.970 69.340,100.746 69.974,100.597 69.974 C 100.448 69.974,100.219 70.757,100.087 71.715 C 99.955 72.672,99.706 73.455,99.532 73.455 C 99.359 73.455,99.217 73.847,99.217 74.326 C 99.217 74.804,99.078 75.196,98.909 75.196 C 98.740 75.196,98.493 76.214,98.359 77.459 C 98.226 78.703,97.973 79.721,97.796 79.721 C 97.620 79.721,97.476 80.270,97.476 80.940 C 97.476 81.610,97.338 82.158,97.169 82.158 C 97.001 82.158,96.751 83.647,96.615 85.466 C 96.478 87.285,96.225 88.773,96.051 88.773 C 95.877 88.773,95.735 89.869,95.735 91.210 C 95.735 92.602,95.586 93.647,95.387 93.647 C 95.164 93.647,95.039 97.070,95.039 103.220 C 95.039 109.370,95.164 112.794,95.387 112.794 C 95.584 112.794,95.735 113.780,95.735 115.057 C 95.735 116.301,95.874 117.319,96.042 117.319 C 96.211 117.319,96.460 118.651,96.596 120.279 C 96.731 121.906,96.985 123.238,97.159 123.238 C 97.333 123.238,97.476 123.708,97.476 124.282 C 97.476 124.856,97.617 125.326,97.789 125.326 C 97.961 125.326,98.212 126.423,98.346 127.763 C 98.481 129.104,98.732 130.200,98.904 130.200 C 99.076 130.200,99.217 130.513,99.217 130.896 C 99.217 131.279,99.359 131.593,99.532 131.593 C 99.706 131.593,99.955 132.376,100.087 133.333 C 100.219 134.291,100.455 135.074,100.611 135.074 C 100.768 135.074,101.002 135.700,101.131 136.465 C 101.260 137.230,101.509 137.944,101.684 138.052 C 101.859 138.160,102.002 138.552,102.002 138.924 C 102.002 139.296,102.141 139.600,102.311 139.600 C 102.481 139.600,102.723 140.148,102.849 140.818 C 102.975 141.488,103.227 142.037,103.410 142.037 C 103.593 142.037,103.742 142.428,103.742 142.907 C 103.742 143.386,103.892 143.777,104.075 143.777 C 104.258 143.777,104.510 144.326,104.636 144.996 C 104.761 145.666,105.003 146.214,105.174 146.214 C 105.344 146.214,105.483 146.449,105.483 146.736 C 105.483 147.023,105.627 147.258,105.803 147.258 C 105.980 147.258,106.227 147.728,106.353 148.303 C 106.480 148.877,106.727 149.347,106.903 149.347 C 107.079 149.347,107.224 149.661,107.224 150.044 C 107.224 150.426,107.368 150.740,107.544 150.740 C 107.720 150.740,107.968 151.210,108.094 151.784 C 108.220 152.359,108.450 152.829,108.605 152.829 C 108.760 152.829,108.990 153.377,109.115 154.047 C 109.241 154.717,109.494 155.265,109.676 155.265 C 109.859 155.265,110.009 155.500,110.009 155.788 C 110.009 156.075,110.162 156.310,110.350 156.310 C 110.538 156.310,110.790 156.701,110.910 157.180 C 111.030 157.659,111.268 158.050,111.439 158.050 C 111.610 158.050,111.749 158.285,111.749 158.573 C 111.749 158.860,111.906 159.095,112.097 159.095 C 112.289 159.095,112.446 159.413,112.446 159.802 C 112.446 160.191,112.681 160.599,112.968 160.710 C 113.255 160.820,113.490 161.207,113.490 161.569 C 113.490 161.931,113.647 162.228,113.838 162.228 C 114.030 162.228,114.186 162.468,114.186 162.761 C 114.186 163.054,114.404 163.378,114.669 163.480 C 114.935 163.582,115.249 164.146,115.366 164.734 C 115.484 165.322,115.854 166.058,116.189 166.370 C 116.916 167.048,117.611 168.093,117.892 168.930 C 118.005 169.265,118.218 169.539,118.367 169.539 C 118.515 169.539,118.735 169.930,118.855 170.409 C 118.975 170.888,119.227 171.279,119.415 171.279 C 119.603 171.279,119.756 171.514,119.756 171.802 C 119.756 172.089,119.902 172.324,120.081 172.324 C 120.260 172.324,120.517 172.676,120.653 173.107 C 120.789 173.538,121.169 174.125,121.497 174.413 C 121.825 174.700,122.205 175.287,122.341 175.718 C 122.477 176.149,122.734 176.501,122.913 176.501 C 123.091 176.501,123.238 176.741,123.238 177.034 C 123.238 177.328,123.473 177.658,123.760 177.768 C 124.047 177.878,124.282 178.248,124.282 178.590 C 124.282 178.932,124.517 179.302,124.804 179.412 C 125.091 179.522,125.326 179.920,125.326 180.296 C 125.326 180.674,125.638 181.079,126.023 181.201 C 126.408 181.323,126.719 181.728,126.719 182.106 C 126.719 182.482,126.954 182.880,127.241 182.990 C 127.528 183.100,127.763 183.487,127.763 183.849 C 127.763 184.212,127.925 184.508,128.122 184.508 C 128.320 184.508,128.583 184.782,128.707 185.117 C 128.832 185.453,129.196 185.962,129.517 186.249 C 129.838 186.536,130.212 187.124,130.348 187.554 C 130.484 187.985,130.724 188.338,130.882 188.338 C 131.040 188.338,131.267 188.729,131.388 189.208 C 131.508 189.687,131.760 190.078,131.947 190.078 C 132.135 190.078,132.289 190.246,132.289 190.451 C 132.289 190.656,132.485 191.043,132.724 191.310 C 133.741 192.444,134.030 192.852,134.030 193.160 C 134.030 193.339,134.265 193.575,134.552 193.686 C 134.839 193.796,135.074 194.194,135.074 194.570 C 135.074 194.948,135.385 195.352,135.770 195.474 C 136.155 195.596,136.466 196.001,136.466 196.379 C 136.466 196.755,136.701 197.153,136.989 197.263 C 137.276 197.373,137.511 197.743,137.511 198.085 C 137.511 198.427,137.746 198.797,138.033 198.907 C 138.320 199.018,138.555 199.426,138.555 199.815 C 138.555 200.204,138.717 200.522,138.914 200.522 C 139.112 200.522,139.375 200.796,139.499 201.131 C 139.624 201.466,139.988 201.976,140.309 202.263 C 140.630 202.550,141.004 203.138,141.140 203.568 C 141.276 203.999,141.533 204.352,141.712 204.352 C 141.890 204.352,142.037 204.587,142.037 204.874 C 142.037 205.161,142.183 205.396,142.361 205.396 C 142.540 205.396,142.797 205.748,142.933 206.179 C 143.069 206.610,143.449 207.198,143.777 207.485 C 144.105 207.772,144.485 208.359,144.621 208.790 C 144.757 209.221,144.998 209.574,145.155 209.574 C 145.313 209.574,145.541 209.965,145.661 210.444 C 145.781 210.923,146.033 211.314,146.221 211.314 C 146.409 211.314,146.562 211.549,146.562 211.836 C 146.562 212.124,146.702 212.359,146.873 212.359 C 147.043 212.359,147.281 212.750,147.401 213.229 C 147.522 213.708,147.774 214.099,147.961 214.099 C 148.149 214.099,148.303 214.334,148.303 214.621 C 148.303 214.909,148.457 215.144,148.644 215.144 C 148.832 215.144,149.084 215.535,149.204 216.014 C 149.324 216.493,149.562 216.884,149.733 216.884 C 149.904 216.884,150.044 217.119,150.044 217.406 C 150.044 217.694,150.190 217.929,150.368 217.929 C 150.547 217.929,150.804 218.281,150.940 218.712 C 151.076 219.143,151.478 219.748,151.833 220.058 C 152.189 220.367,152.575 221.101,152.693 221.689 C 152.810 222.277,153.124 222.841,153.390 222.943 C 153.656 223.045,153.873 223.369,153.873 223.662 C 153.873 223.955,154.030 224.195,154.221 224.195 C 154.413 224.195,154.569 224.508,154.569 224.891 C 154.569 225.274,154.709 225.587,154.880 225.587 C 155.050 225.587,155.288 225.979,155.408 226.458 C 155.529 226.936,155.781 227.328,155.968 227.328 C 156.156 227.328,156.310 227.563,156.310 227.850 C 156.310 228.138,156.459 228.372,156.642 228.372 C 156.825 228.372,157.077 228.921,157.203 229.591 C 157.329 230.261,157.571 230.809,157.741 230.809 C 157.911 230.809,158.050 231.028,158.050 231.294 C 158.050 231.561,158.285 231.869,158.573 231.980 C 158.860 232.090,159.095 232.498,159.095 232.887 C 159.095 233.276,159.252 233.594,159.443 233.594 C 159.634 233.594,159.791 233.829,159.791 234.117 C 159.791 234.404,159.941 234.639,160.123 234.639 C 160.306 234.639,160.559 235.187,160.684 235.857 C 160.810 236.527,161.040 237.076,161.195 237.076 C 161.350 237.076,161.580 237.546,161.706 238.120 C 161.832 238.695,162.079 239.164,162.256 239.164 C 162.432 239.164,162.576 239.399,162.576 239.687 C 162.576 239.974,162.715 240.209,162.886 240.209 C 163.056 240.209,163.298 240.757,163.424 241.427 C 163.549 242.097,163.802 242.646,163.984 242.646 C 164.167 242.646,164.317 242.881,164.317 243.168 C 164.317 243.455,164.456 243.690,164.626 243.690 C 164.796 243.690,165.038 244.238,165.164 244.909 C 165.290 245.579,165.542 246.127,165.725 246.127 C 165.908 246.127,166.057 246.362,166.057 246.649 C 166.057 246.936,166.212 247.171,166.401 247.171 C 166.591 247.171,166.846 247.798,166.968 248.564 C 167.091 249.330,167.327 249.956,167.494 249.956 C 167.661 249.956,167.798 250.270,167.798 250.653 C 167.798 251.036,167.953 251.349,168.142 251.349 C 168.331 251.349,168.586 251.976,168.709 252.742 C 168.831 253.507,169.056 254.134,169.207 254.134 C 169.359 254.134,169.587 254.604,169.713 255.178 C 169.839 255.753,170.086 256.223,170.263 256.223 C 170.439 256.223,170.583 256.614,170.583 257.093 C 170.583 257.572,170.730 257.963,170.910 257.963 C 171.090 257.963,171.342 258.668,171.472 259.530 C 171.601 260.392,171.845 261.097,172.015 261.097 C 172.185 261.097,172.324 261.488,172.324 261.967 C 172.324 262.446,172.467 262.837,172.641 262.837 C 172.816 262.837,173.065 263.464,173.194 264.230 C 173.323 264.996,173.572 265.622,173.747 265.622 C 173.922 265.622,174.064 266.014,174.064 266.493 C 174.064 266.971,174.203 267.363,174.373 267.363 C 174.543 267.363,174.793 268.107,174.929 269.017 C 175.066 269.926,175.322 270.760,175.500 270.870 C 175.678 270.981,175.919 271.881,176.037 272.872 C 176.154 273.863,176.385 274.674,176.550 274.674 C 176.715 274.674,176.849 275.065,176.849 275.544 C 176.849 276.023,176.994 276.414,177.170 276.414 C 177.346 276.414,177.599 277.433,177.733 278.677 C 177.866 279.922,178.113 280.940,178.283 280.940 C 178.452 280.940,178.590 281.332,178.590 281.810 C 178.590 282.289,178.728 282.681,178.897 282.681 C 179.066 282.681,179.315 283.856,179.449 285.292 C 179.584 286.728,179.837 287.903,180.012 287.903 C 180.187 287.903,180.331 288.529,180.331 289.295 C 180.331 290.061,180.471 290.688,180.643 290.688 C 180.814 290.688,181.065 291.941,181.201 293.473 C 181.337 295.004,181.588 296.258,181.759 296.258 C 181.931 296.258,182.071 297.041,182.071 297.998 C 182.071 298.956,182.211 299.739,182.381 299.739 C 182.551 299.739,182.805 301.658,182.945 304.003 C 183.084 306.349,183.336 308.356,183.505 308.462 C 183.674 308.569,183.915 312.212,184.041 316.556 C 184.168 320.901,184.403 324.456,184.564 324.456 C 184.725 324.456,184.856 326.728,184.856 329.504 C 184.856 332.280,184.993 334.552,185.161 334.552 C 185.329 334.552,185.560 335.022,185.675 335.596 C 185.889 336.669,189.771 340.818,190.561 340.818 C 190.785 340.818,191.191 341.126,191.462 341.502 C 191.733 341.877,192.394 342.282,192.931 342.400 C 193.468 342.518,193.908 342.758,193.908 342.935 C 193.908 343.111,194.286 343.255,194.749 343.255 C 195.212 343.255,195.653 343.442,195.729 343.670 C 195.924 344.254,204.076 344.254,204.271 343.670 C 204.347 343.442,204.788 343.255,205.251 343.255 C 205.714 343.255,206.092 343.111,206.092 342.935 C 206.092 342.758,206.532 342.518,207.069 342.400 C 207.606 342.282,208.267 341.877,208.538 341.502 C 208.809 341.126,209.228 340.818,209.470 340.818 C 210.389 340.818,214.142 336.649,214.344 335.404 C 214.451 334.744,214.675 334.204,214.841 334.204 C 215.007 334.204,215.144 332.010,215.144 329.330 C 215.144 326.649,215.275 324.456,215.436 324.456 C 215.597 324.456,215.832 320.892,215.959 316.536 C 216.097 311.789,216.329 308.570,216.537 308.500 C 216.728 308.436,216.884 307.379,216.884 306.150 C 216.884 304.922,217.021 303.916,217.188 303.916 C 217.354 303.916,217.603 302.193,217.739 300.087 C 217.876 297.981,218.114 296.258,218.269 296.258 C 218.424 296.258,218.663 294.848,218.799 293.124 C 218.935 291.401,219.187 289.991,219.358 289.991 C 219.529 289.991,219.669 289.521,219.669 288.947 C 219.669 288.372,219.808 287.903,219.977 287.903 C 220.145 287.903,220.394 286.728,220.528 285.292 C 220.663 283.856,220.916 282.681,221.091 282.681 C 221.267 282.681,221.410 282.132,221.410 281.462 C 221.410 280.792,221.555 280.244,221.733 280.244 C 221.911 280.244,222.164 279.382,222.295 278.329 C 222.427 277.276,222.673 276.414,222.843 276.414 C 223.012 276.414,223.151 276.023,223.151 275.544 C 223.151 275.065,223.285 274.674,223.450 274.674 C 223.615 274.674,223.847 273.852,223.966 272.848 C 224.085 271.844,224.342 270.969,224.537 270.904 C 224.732 270.839,224.891 270.417,224.891 269.965 C 224.891 269.514,225.039 269.053,225.219 268.942 C 225.400 268.830,225.652 268.038,225.781 267.181 C 225.909 266.324,226.134 265.622,226.279 265.622 C 226.424 265.622,226.643 264.996,226.766 264.230 C 226.888 263.464,227.143 262.837,227.332 262.837 C 227.521 262.837,227.676 262.446,227.676 261.967 C 227.676 261.488,227.815 261.097,227.985 261.097 C 228.155 261.097,228.399 260.392,228.528 259.530 C 228.658 258.668,228.910 257.963,229.090 257.963 C 229.270 257.963,229.417 257.572,229.417 257.093 C 229.417 256.614,229.561 256.223,229.737 256.223 C 229.914 256.223,230.161 255.753,230.287 255.178 C 230.413 254.604,230.661 254.134,230.837 254.134 C 231.013 254.134,231.158 253.742,231.158 253.264 C 231.158 252.785,231.307 252.393,231.490 252.393 C 231.673 252.393,231.925 251.845,232.051 251.175 C 232.177 250.505,232.419 249.956,232.589 249.956 C 232.759 249.956,232.898 249.565,232.898 249.086 C 232.898 248.607,233.042 248.216,233.219 248.216 C 233.395 248.216,233.642 247.746,233.768 247.171 C 233.895 246.597,234.135 246.127,234.303 246.127 C 234.470 246.127,234.710 245.579,234.836 244.909 C 234.962 244.238,235.204 243.690,235.374 243.690 C 235.544 243.690,235.683 243.455,235.683 243.168 C 235.683 242.881,235.833 242.646,236.016 242.646 C 236.198 242.646,236.451 242.097,236.576 241.427 C 236.702 240.757,236.944 240.209,237.114 240.209 C 237.285 240.209,237.424 239.974,237.424 239.687 C 237.424 239.399,237.568 239.164,237.744 239.164 C 237.921 239.164,238.168 238.695,238.294 238.120 C 238.420 237.546,238.668 237.076,238.844 237.076 C 239.020 237.076,239.164 236.762,239.164 236.379 C 239.164 235.997,239.309 235.683,239.485 235.683 C 239.661 235.683,239.909 235.213,240.035 234.639 C 240.161 234.064,240.408 233.594,240.585 233.594 C 240.761 233.594,240.905 233.281,240.905 232.898 C 240.905 232.515,241.062 232.202,241.253 232.202 C 241.445 232.202,241.601 231.962,241.601 231.669 C 241.601 231.376,241.821 231.051,242.089 230.948 C 242.358 230.845,242.678 230.224,242.801 229.567 C 242.925 228.910,243.175 228.372,243.358 228.372 C 243.541 228.372,243.690 228.138,243.690 227.850 C 243.690 227.563,243.844 227.328,244.032 227.328 C 244.219 227.328,244.471 226.936,244.592 226.458 C 244.712 225.979,244.950 225.587,245.120 225.587 C 245.291 225.587,245.431 225.274,245.431 224.891 C 245.431 224.508,245.587 224.195,245.779 224.195 C 245.970 224.195,246.127 223.955,246.127 223.662 C 246.127 223.369,246.362 223.039,246.649 222.928 C 246.936 222.818,247.171 222.431,247.171 222.069 C 247.171 221.706,247.328 221.410,247.520 221.410 C 247.711 221.410,247.868 221.186,247.868 220.913 C 247.868 220.639,248.082 220.201,248.344 219.939 C 248.606 219.677,248.930 219.118,249.064 218.696 C 249.198 218.274,249.453 217.929,249.632 217.929 C 249.810 217.929,249.956 217.694,249.956 217.406 C 249.956 217.119,250.096 216.884,250.267 216.884 C 250.438 216.884,250.676 216.493,250.796 216.014 C 250.916 215.535,251.168 215.144,251.356 215.144 C 251.543 215.144,251.697 214.909,251.697 214.621 C 251.697 214.334,251.851 214.099,252.039 214.099 C 252.226 214.099,252.478 213.708,252.599 213.229 C 252.719 212.750,252.957 212.359,253.127 212.359 C 253.298 212.359,253.438 212.124,253.438 211.836 C 253.438 211.549,253.584 211.314,253.762 211.314 C 253.941 211.314,254.198 210.962,254.334 210.531 C 254.470 210.100,254.850 209.513,255.178 209.225 C 255.507 208.938,255.886 208.351,256.022 207.920 C 256.158 207.489,256.399 207.137,256.557 207.137 C 256.714 207.137,256.942 206.745,257.062 206.266 C 257.182 205.788,257.434 205.396,257.622 205.396 C 257.810 205.396,257.963 205.161,257.963 204.874 C 257.963 204.587,258.110 204.352,258.288 204.352 C 258.467 204.352,258.724 203.999,258.860 203.568 C 258.996 203.138,259.370 202.550,259.691 202.263 C 260.012 201.976,260.376 201.466,260.501 201.131 C 260.625 200.796,260.888 200.522,261.086 200.522 C 261.283 200.522,261.445 200.226,261.445 199.863 C 261.445 199.501,261.680 199.114,261.967 199.004 C 262.254 198.894,262.489 198.496,262.489 198.120 C 262.489 197.742,262.800 197.337,263.185 197.215 C 263.570 197.093,263.882 196.688,263.882 196.310 C 263.882 195.934,264.117 195.536,264.404 195.426 C 264.691 195.316,264.926 194.924,264.926 194.556 C 264.926 194.187,265.161 193.796,265.448 193.686 C 265.735 193.575,265.970 193.267,265.970 193.000 C 265.970 192.733,266.117 192.515,266.295 192.515 C 266.474 192.515,266.727 192.176,266.859 191.761 C 266.991 191.347,267.471 190.635,267.927 190.179 C 268.383 189.723,268.755 189.180,268.755 188.972 C 268.755 188.764,269.046 188.340,269.402 188.030 C 269.757 187.721,270.160 187.115,270.296 186.684 C 270.432 186.253,270.689 185.901,270.868 185.901 C 271.046 185.901,271.192 185.661,271.192 185.368 C 271.192 185.074,271.427 184.744,271.715 184.634 C 272.002 184.524,272.237 184.154,272.237 183.812 C 272.237 183.470,272.472 183.100,272.759 182.990 C 273.046 182.880,273.281 182.482,273.281 182.106 C 273.281 181.728,273.592 181.323,273.977 181.201 C 274.362 181.079,274.674 180.674,274.674 180.296 C 274.674 179.920,274.909 179.522,275.196 179.412 C 275.483 179.302,275.718 178.915,275.718 178.553 C 275.718 178.190,275.880 177.894,276.077 177.894 C 276.275 177.894,276.538 177.620,276.662 177.285 C 276.786 176.950,277.151 176.440,277.472 176.153 C 277.793 175.866,278.167 175.279,278.303 174.848 C 278.439 174.417,278.679 174.064,278.837 174.064 C 278.995 174.064,279.222 173.673,279.342 173.194 C 279.462 172.715,279.714 172.324,279.902 172.324 C 280.090 172.324,280.244 172.089,280.244 171.802 C 280.244 171.514,280.397 171.279,280.585 171.279 C 280.773 171.279,281.025 170.888,281.145 170.409 C 281.265 169.930,281.503 169.539,281.674 169.539 C 281.845 169.539,281.984 169.304,281.984 169.017 C 281.984 168.729,282.130 168.494,282.309 168.494 C 282.488 168.494,282.745 168.142,282.881 167.711 C 283.017 167.280,283.419 166.675,283.774 166.365 C 284.129 166.056,284.517 165.316,284.636 164.722 C 284.759 164.107,285.130 163.553,285.495 163.437 C 285.881 163.315,286.226 162.764,286.358 162.058 C 286.479 161.412,286.798 160.799,287.066 160.696 C 287.335 160.593,287.554 160.191,287.554 159.802 C 287.554 159.413,287.711 159.095,287.903 159.095 C 288.094 159.095,288.251 158.860,288.251 158.573 C 288.251 158.285,288.390 158.050,288.561 158.050 C 288.732 158.050,288.970 157.659,289.090 157.180 C 289.210 156.701,289.462 156.310,289.650 156.310 C 289.838 156.310,289.991 156.075,289.991 155.788 C 289.991 155.500,290.141 155.265,290.324 155.265 C 290.506 155.265,290.759 154.717,290.885 154.047 C 291.010 153.377,291.252 152.829,291.423 152.829 C 291.593 152.829,291.732 152.594,291.732 152.306 C 291.732 152.019,291.882 151.784,292.064 151.784 C 292.247 151.784,292.500 151.236,292.625 150.566 C 292.751 149.896,292.993 149.347,293.163 149.347 C 293.333 149.347,293.473 149.112,293.473 148.825 C 293.473 148.538,293.617 148.303,293.793 148.303 C 293.969 148.303,294.217 147.833,294.343 147.258 C 294.469 146.684,294.699 146.214,294.854 146.214 C 295.009 146.214,295.239 145.666,295.364 144.996 C 295.490 144.326,295.742 143.777,295.925 143.777 C 296.108 143.777,296.258 143.386,296.258 142.907 C 296.258 142.428,296.412 142.037,296.602 142.037 C 296.791 142.037,297.046 141.410,297.168 140.644 C 297.291 139.878,297.528 139.252,297.695 139.252 C 297.862 139.252,297.998 139.017,297.998 138.729 C 297.998 138.442,298.137 138.207,298.307 138.207 C 298.477 138.207,298.721 137.502,298.850 136.641 C 298.980 135.779,299.232 135.074,299.412 135.074 C 299.592 135.074,299.739 134.682,299.739 134.204 C 299.739 133.725,299.878 133.333,300.048 133.333 C 300.217 133.333,300.462 132.628,300.591 131.767 C 300.720 130.905,300.957 130.200,301.117 130.200 C 301.278 130.200,301.519 129.104,301.654 127.763 C 301.788 126.423,302.039 125.326,302.211 125.326 C 302.383 125.326,302.524 124.856,302.524 124.282 C 302.524 123.708,302.667 123.238,302.841 123.238 C 303.015 123.238,303.269 121.906,303.404 120.279 C 303.540 118.651,303.789 117.319,303.958 117.319 C 304.126 117.319,304.265 116.301,304.265 115.057 C 304.265 113.780,304.416 112.794,304.613 112.794 C 304.836 112.794,304.961 109.428,304.961 103.394 C 304.961 97.360,304.836 93.995,304.613 93.995 C 304.412 93.995,304.265 92.892,304.265 91.384 C 304.265 89.948,304.125 88.773,303.953 88.773 C 303.782 88.773,303.531 87.363,303.394 85.640 C 303.258 83.916,303.006 82.507,302.835 82.507 C 302.664 82.507,302.524 81.880,302.524 81.114 C 302.524 80.348,302.385 79.721,302.216 79.721 C 302.047 79.721,301.800 78.860,301.669 77.807 C 301.537 76.754,301.304 75.892,301.151 75.892 C 300.998 75.892,300.767 74.952,300.637 73.803 C 300.507 72.654,300.252 71.715,300.070 71.715 C 299.888 71.715,299.739 71.323,299.739 70.844 C 299.739 70.366,299.597 69.974,299.423 69.974 C 299.250 69.974,299.000 69.191,298.869 68.233 C 298.737 67.276,298.487 66.493,298.314 66.493 C 298.140 66.493,297.998 66.258,297.998 65.970 C 297.998 65.683,297.862 65.448,297.695 65.448 C 297.528 65.448,297.291 64.822,297.168 64.056 C 297.046 63.290,296.791 62.663,296.602 62.663 C 296.412 62.663,296.258 62.428,296.258 62.141 C 296.258 61.854,296.119 61.619,295.949 61.619 C 295.779 61.619,295.535 60.914,295.405 60.052 C 295.276 59.191,295.036 58.486,294.871 58.486 C 294.707 58.486,294.469 58.016,294.343 57.441 C 294.217 56.867,293.969 56.397,293.793 56.397 C 293.617 56.397,293.473 56.162,293.473 55.875 C 293.473 55.587,293.316 55.352,293.124 55.352 C 292.933 55.352,292.776 55.034,292.776 54.645 C 292.776 54.256,292.541 53.848,292.254 53.738 C 291.967 53.628,291.732 53.241,291.732 52.878 C 291.732 52.516,291.592 52.219,291.422 52.219 C 291.251 52.219,291.005 51.798,290.876 51.283 C 290.747 50.767,290.361 50.102,290.018 49.803 C 289.675 49.504,289.283 48.908,289.147 48.477 C 289.011 48.046,288.754 47.694,288.575 47.694 C 288.397 47.694,288.251 47.459,288.251 47.171 C 288.251 46.884,288.105 46.649,287.926 46.649 C 287.747 46.649,287.492 46.304,287.358 45.882 C 287.224 45.460,286.900 44.901,286.638 44.639 C 286.376 44.377,286.162 43.976,286.162 43.748 C 286.162 43.520,285.770 43.039,285.292 42.680 C 284.813 42.320,284.421 41.884,284.421 41.711 C 284.421 41.538,284.030 41.004,283.551 40.525 C 283.072 40.047,282.681 39.500,282.681 39.310 C 282.681 39.120,281.976 38.279,281.114 37.442 C 280.252 36.605,279.547 35.761,279.547 35.567 C 279.547 35.260,279.048 34.716,277.035 32.828 C 276.789 32.598,276.400 32.206,276.170 31.957 C 275.940 31.709,275.548 31.317,275.300 31.087 C 275.051 30.857,274.656 30.465,274.422 30.217 C 273.880 29.641,273.231 28.992,272.655 28.450 C 272.407 28.216,272.015 27.824,271.785 27.578 C 270.010 25.685,268.548 24.369,268.221 24.369 C 268.102 24.369,267.384 23.742,266.626 22.977 C 265.868 22.211,265.029 21.584,264.762 21.584 C 264.495 21.584,264.180 21.279,264.061 20.906 C 263.943 20.532,263.541 20.130,263.168 20.012 C 262.794 19.893,262.489 19.650,262.489 19.472 C 262.489 19.293,262.254 19.147,261.967 19.147 C 261.680 19.147,261.445 19.001,261.445 18.822 C 261.445 18.644,261.092 18.387,260.661 18.252 C 260.231 18.117,259.533 17.636,259.111 17.184 C 258.690 16.732,258.102 16.362,257.806 16.362 C 257.510 16.362,257.267 16.205,257.267 16.014 C 257.267 15.822,257.027 15.666,256.734 15.666 C 256.441 15.666,256.111 15.431,256.001 15.144 C 255.890 14.856,255.520 14.621,255.178 14.621 C 254.836 14.621,254.466 14.386,254.356 14.099 C 254.246 13.812,253.838 13.577,253.449 13.577 C 253.060 13.577,252.742 13.420,252.742 13.229 C 252.742 13.037,252.507 12.881,252.219 12.881 C 251.932 12.881,251.697 12.727,251.697 12.539 C 251.697 12.351,251.305 12.099,250.827 11.979 C 250.348 11.859,249.956 11.621,249.956 11.451 C 249.956 11.280,249.721 11.140,249.434 11.140 C 249.147 11.140,248.912 10.991,248.912 10.808 C 248.912 10.625,248.364 10.373,247.694 10.247 C 247.023 10.121,246.475 9.891,246.475 9.737 C 246.475 9.582,246.005 9.352,245.431 9.225 C 244.856 9.099,244.386 8.852,244.386 8.676 C 244.386 8.499,244.073 8.355,243.690 8.355 C 243.307 8.355,242.994 8.200,242.994 8.011 C 242.994 7.822,242.367 7.567,241.601 7.444 C 240.836 7.322,240.209 7.085,240.209 6.918 C 240.209 6.751,239.974 6.614,239.687 6.614 C 239.399 6.614,239.164 6.478,239.164 6.311 C 239.164 6.144,238.538 5.907,237.772 5.785 C 237.006 5.662,236.379 5.407,236.379 5.218 C 236.379 5.029,235.988 4.874,235.509 4.874 C 235.030 4.874,234.639 4.732,234.639 4.558 C 234.639 4.385,233.856 4.135,232.898 4.003 C 231.941 3.872,231.158 3.622,231.158 3.449 C 231.158 3.275,230.609 3.133,229.939 3.133 C 229.269 3.133,228.721 2.988,228.721 2.810 C 228.721 2.632,227.859 2.379,226.806 2.248 C 225.753 2.116,224.891 1.886,224.891 1.736 C 224.891 1.586,223.755 1.350,222.367 1.212 C 220.979 1.074,219.732 0.784,219.595 0.568 C 219.352 0.183,186.604 -0.101,182.158 0.243 M206.092 59.479 C 206.092 59.642,207.306 59.878,208.790 60.004 C 210.274 60.129,211.540 60.387,211.604 60.577 C 211.668 60.767,212.099 60.923,212.562 60.923 C 213.024 60.923,213.403 61.064,213.403 61.238 C 213.403 61.412,214.186 61.661,215.144 61.793 C 216.101 61.925,216.884 62.172,216.884 62.344 C 216.884 62.515,217.511 62.755,218.277 62.878 C 219.043 63.000,219.669 63.237,219.669 63.404 C 219.669 63.571,219.983 63.708,220.366 63.708 C 220.748 63.708,221.062 63.864,221.062 64.056 C 221.062 64.247,221.302 64.404,221.595 64.404 C 221.888 64.404,222.218 64.639,222.328 64.926 C 222.439 65.213,222.825 65.448,223.188 65.448 C 223.550 65.448,223.847 65.588,223.847 65.759 C 223.847 65.929,224.238 66.167,224.717 66.287 C 225.196 66.408,225.587 66.660,225.587 66.847 C 225.587 67.035,225.765 67.189,225.983 67.189 C 226.200 67.189,226.741 67.581,227.185 68.059 C 227.628 68.538,228.130 68.930,228.300 68.930 C 228.746 68.930,234.639 74.766,234.639 75.207 C 234.639 75.411,235.009 75.922,235.461 76.344 C 235.913 76.766,236.393 77.463,236.529 77.894 C 236.664 78.325,236.921 78.677,237.099 78.677 C 237.278 78.677,237.424 78.912,237.424 79.199 C 237.424 79.487,237.578 79.721,237.765 79.721 C 237.953 79.721,238.205 80.113,238.325 80.592 C 238.445 81.070,238.683 81.462,238.854 81.462 C 239.025 81.462,239.164 81.697,239.164 81.984 C 239.164 82.272,239.304 82.507,239.474 82.507 C 239.644 82.507,239.886 83.055,240.012 83.725 C 240.138 84.395,240.390 84.943,240.573 84.943 C 240.756 84.943,240.905 85.178,240.905 85.466 C 240.905 85.753,241.042 85.988,241.209 85.988 C 241.376 85.988,241.613 86.614,241.735 87.380 C 241.858 88.146,242.113 88.773,242.302 88.773 C 242.491 88.773,242.646 89.164,242.646 89.643 C 242.646 90.122,242.787 90.513,242.959 90.513 C 243.131 90.513,243.384 91.649,243.522 93.037 C 243.661 94.426,243.951 95.673,244.167 95.810 C 244.731 96.166,244.714 112.028,244.149 112.377 C 243.926 112.515,243.633 113.605,243.498 114.800 C 243.363 115.994,243.116 116.971,242.949 116.971 C 242.782 116.971,242.646 117.363,242.646 117.842 C 242.646 118.320,242.509 118.712,242.342 118.712 C 242.175 118.712,241.938 119.339,241.816 120.104 C 241.693 120.870,241.438 121.497,241.249 121.497 C 241.060 121.497,240.905 121.732,240.905 122.019 C 240.905 122.306,240.766 122.541,240.597 122.541 C 240.427 122.541,240.183 123.238,240.056 124.090 C 239.892 125.182,239.627 125.702,239.158 125.851 C 238.746 125.981,238.408 126.514,238.270 127.249 C 238.133 127.979,237.793 128.516,237.387 128.645 C 237.024 128.760,236.728 129.162,236.728 129.538 C 236.728 129.914,236.499 130.310,236.219 130.417 C 235.939 130.525,235.604 130.947,235.474 131.355 C 235.345 131.763,234.555 132.761,233.720 133.572 C 232.885 134.384,232.202 135.211,232.202 135.409 C 232.202 135.608,232.030 135.770,231.819 135.770 C 231.609 135.770,230.670 136.554,229.732 137.511 C 228.795 138.468,227.942 139.252,227.837 139.252 C 227.654 139.252,227.152 139.633,226.122 140.557 C 225.856 140.796,225.469 140.992,225.264 140.992 C 225.059 140.992,224.891 141.146,224.891 141.334 C 224.891 141.521,224.500 141.773,224.021 141.894 C 223.542 142.014,223.151 142.239,223.151 142.395 C 223.151 142.550,222.681 142.781,222.106 142.907 C 221.532 143.033,221.062 143.280,221.062 143.457 C 221.062 143.633,220.748 143.777,220.366 143.777 C 219.983 143.777,219.669 143.921,219.669 144.098 C 219.669 144.274,219.199 144.521,218.625 144.648 C 218.050 144.774,217.581 145.021,217.581 145.197 C 217.581 145.374,217.189 145.518,216.710 145.518 C 216.232 145.518,215.840 145.660,215.840 145.833 C 215.840 146.007,215.057 146.256,214.099 146.388 C 213.142 146.520,212.359 146.770,212.359 146.943 C 212.359 147.117,211.823 147.258,211.169 147.258 C 210.515 147.258,209.927 147.412,209.864 147.600 C 209.800 147.788,208.142 148.046,206.179 148.174 C 204.217 148.303,202.611 148.541,202.611 148.703 C 202.611 148.866,201.436 148.999,200.000 148.999 C 198.564 148.999,197.389 148.866,197.389 148.703 C 197.389 148.541,195.783 148.303,193.821 148.174 C 191.858 148.046,190.200 147.788,190.136 147.600 C 190.073 147.412,189.485 147.258,188.831 147.258 C 188.177 147.258,187.641 147.117,187.641 146.943 C 187.641 146.770,186.858 146.520,185.901 146.388 C 184.943 146.256,184.160 146.007,184.160 145.833 C 184.160 145.660,183.768 145.518,183.290 145.518 C 182.811 145.518,182.419 145.374,182.419 145.197 C 182.419 145.021,181.950 144.774,181.375 144.648 C 180.801 144.521,180.331 144.311,180.331 144.180 C 180.331 143.920,177.757 142.733,177.195 142.733 C 177.005 142.733,176.849 142.593,176.849 142.422 C 176.849 142.252,176.458 142.014,175.979 141.894 C 175.500 141.773,175.109 141.521,175.109 141.334 C 175.109 141.146,174.931 140.992,174.714 140.992 C 174.496 140.992,173.955 140.601,173.512 140.122 C 173.068 139.643,172.535 139.252,172.326 139.252 C 172.118 139.252,171.352 138.625,170.623 137.859 C 169.895 137.093,169.050 136.466,168.746 136.466 C 168.442 136.466,168.088 136.135,167.959 135.729 C 167.831 135.324,166.958 134.230,166.021 133.297 C 165.084 132.365,164.317 131.382,164.317 131.112 C 164.317 130.843,164.082 130.533,163.795 130.422 C 163.507 130.312,163.272 129.914,163.272 129.538 C 163.272 129.162,162.976 128.760,162.613 128.645 C 162.207 128.516,161.867 127.979,161.730 127.249 C 161.595 126.528,161.253 125.981,160.860 125.856 C 160.464 125.731,160.124 125.182,159.986 124.444 C 159.861 123.781,159.610 123.238,159.427 123.238 C 159.244 123.238,159.095 122.846,159.095 122.367 C 159.095 121.889,158.940 121.497,158.751 121.497 C 158.562 121.497,158.307 120.870,158.184 120.104 C 158.062 119.339,157.840 118.712,157.691 118.712 C 157.541 118.712,157.312 117.929,157.180 116.971 C 157.048 116.014,156.799 115.231,156.625 115.231 C 156.452 115.231,156.310 114.617,156.310 113.867 C 156.310 113.086,156.124 112.442,155.875 112.359 C 155.542 112.248,155.440 110.210,155.440 103.742 C 155.440 97.275,155.542 95.237,155.875 95.126 C 156.114 95.046,156.310 94.524,156.310 93.966 C 156.310 93.407,156.446 92.950,156.613 92.950 C 156.780 92.950,157.023 92.010,157.152 90.862 C 157.282 89.713,157.518 88.773,157.675 88.773 C 157.833 88.773,158.062 88.146,158.184 87.380 C 158.307 86.614,158.562 85.988,158.751 85.988 C 158.940 85.988,159.095 85.753,159.095 85.466 C 159.095 85.178,159.244 84.943,159.427 84.943 C 159.610 84.943,159.862 84.395,159.988 83.725 C 160.114 83.055,160.356 82.507,160.526 82.507 C 160.696 82.507,160.836 82.272,160.836 81.984 C 160.836 81.697,160.975 81.462,161.146 81.462 C 161.317 81.462,161.555 81.070,161.675 80.592 C 161.795 80.113,162.047 79.721,162.235 79.721 C 162.422 79.721,162.576 79.487,162.576 79.199 C 162.576 78.912,162.730 78.677,162.918 78.677 C 163.105 78.677,163.350 78.316,163.461 77.874 C 163.572 77.432,164.045 76.783,164.512 76.432 C 164.979 76.082,165.361 75.583,165.361 75.325 C 165.361 74.733,171.235 68.930,171.834 68.930 C 171.964 68.930,172.433 68.538,172.876 68.059 C 173.320 67.581,173.847 67.189,174.048 67.189 C 174.248 67.189,174.413 67.035,174.413 66.847 C 174.413 66.660,174.804 66.408,175.283 66.287 C 175.762 66.167,176.153 65.929,176.153 65.759 C 176.153 65.588,176.450 65.448,176.812 65.448 C 177.175 65.448,177.561 65.213,177.672 64.926 C 177.782 64.639,178.190 64.404,178.579 64.404 C 178.968 64.404,179.286 64.247,179.286 64.056 C 179.286 63.864,179.521 63.708,179.809 63.708 C 180.096 63.708,180.331 63.571,180.331 63.404 C 180.331 63.237,180.957 63.000,181.723 62.878 C 182.489 62.755,183.116 62.515,183.116 62.344 C 183.116 62.172,183.899 61.925,184.856 61.793 C 185.814 61.661,186.597 61.412,186.597 61.238 C 186.597 61.064,186.976 60.923,187.438 60.923 C 187.901 60.923,188.332 60.767,188.396 60.577 C 188.460 60.387,189.726 60.129,191.210 60.004 C 192.694 59.878,193.908 59.642,193.908 59.479 C 193.908 59.316,196.649 59.182,200.000 59.182 C 203.351 59.182,206.092 59.316,206.092 59.479 " stroke="none" fill="#24a49c" fill-rule="evenodd"></path><path id="path1" d="" stroke="none" fill="#28a49c" fill-rule="evenodd"></path><path id="path2" d="" stroke="none" fill="#28a49c" fill-rule="evenodd"></path><path id="path3" d="" stroke="none" fill="#28a49c" fill-rule="evenodd"></path><path id="path4" d="" stroke="none" fill="#28a49c" fill-rule="evenodd"></path></g></svg>